<?xml version="1.0" encoding="UTF-8"?>
<svg id="Layer_1" xmlns="http://www.w3.org/2000/svg" viewBox="0 0 429.95 469.96">
  <defs>
    <style>
      .cls-1 {
        fill: #d4d4d4;
      }
    </style>
  </defs>
  <path class="cls-1" d="M202,1.34c-2.5.8-45,24.2-94.5,52C13.2,106.34,11.3,107.54,5.5,117.54-.1,127.04,0,124.64,0,234.84,0,299.54.4,337.94,1.1,340.74c.5,2.4,2.1,6.7,3.5,9.6,5.5,11.2,6,11.5,100.4,64.6,48.1,27.1,89.8,50.3,92.6,51.5,9.9,4.6,24.3,4.7,34.2.3,2.6-1.1,44.1-24.1,92.2-51.2,94.5-53.1,95.8-53.9,101.3-65.1,1.4-2.9,3.1-7.3,3.6-9.7,1.4-6,1.4-205.8,0-211.8-.5-2.4-2.2-6.8-3.6-9.7-5.5-11.2-6.8-12-101.3-65.1C275.9,27.04,234.2,3.94,231.5,2.74c-6.4-2.9-22.5-3.7-29.5-1.4ZM239,114.34c24.5,4.9,47.8,17.9,65.4,36.6,4.2,4.5,7.5,8.6,7.3,9.2-.7,2.1-43,26-44.3,25.1-.6-.5-3.8-3-7-5.7-13.4-10.8-28.3-16.1-45.4-16-16.6,0-30.4,4.7-43.8,14.8-11.8,8.9-22,24.5-25.9,39.5-2.2,8.6-2.2,25.4,0,34,3.9,15,14.1,30.6,25.9,39.5,13.4,10.1,27.2,14.8,43.8,14.8,17.1.1,32-5.2,45.4-16,3.2-2.7,6.4-5.2,7-5.7,1.3-.9,43.6,23,44.3,25.1.6,1.8-14.3,16.9-23.6,23.8-14.6,11-33.9,19.4-52.1,22.6-9.7,1.7-32.4,1.7-42,0-50.7-9.1-90.3-48.7-100.1-100.1-1.6-8.4-1.6-33.6,0-42,10.1-53.6,52-93.6,105.6-100.9,9-1.3,29.9-.5,39.5,1.4ZM317.2,214.04l.3,10.3,10.3.3,10.2.3v19.8l-10.2.3-10.3.3-.3,10.2-.3,10.3h-19.9v-21h-21v-20h21v-21h19.9l.3,10.2ZM389,214.34v10.5h21v20h-21v21h-19.9l-.3-10.3-.3-10.2-10.2-.3-10.3-.3v-19.8l10.3-.3,10.2-.3.3-10.3.3-10.2h19.9v10.5Z"/>
</svg>