<?xml version="1.0" encoding="UTF-8"?>
<svg xmlns="http://www.w3.org/2000/svg" version="1.1" viewBox="0 0 1824.64 1026.07">
  <defs>
    <style>
      .cls-1 {
        fill: #f2f2f2;
      }

      .cls-2 {
        fill: #da376e;
      }
    </style>
  </defs>
  <!-- Generator: Adobe Illustrator 28.7.1, SVG Export Plug-In . SVG Version: 1.2.0 Build 142)  -->
  <g>
    <g id="Layer_1">
      <g>
        <g>
          <path class="cls-1" d="M1395.3,202.52c-3.18,37.03-11.2,73.65-31.86,106.78-32.28,51.75-72.62,97.18-111.51,143.77-5.8,6.95-10.85,14.59-15.75,22.22-5.25,8.18-4.26,14.4,4.34,21.09,60.25,46.85,102.96,106.47,128.15,178.64,17.09,48.97,19.45,99.46,16.1,150.53-.91,13.96-2.99,27.88-5.2,41.71-2.08,13-10.06,21.87-21.98,27.05-36.84,16-73.7,31.96-110.64,47.73-11.16,4.76-14.7,1.35-15.98-11.86-3.5-36.16-6.2-72.49-11.89-108.33-4.43-27.89-18.41-52.09-39.79-71.23-5.89-5.27-12.39-10.12-19.27-13.98-13.23-7.43-19.84-3.2-20.12,11.85-.7,37.18-.81,74.4-2.51,111.54-1.24,26.88-4.18,53.7-7.21,80.46-4.04,35.63-25.17,56.89-59.16,65.1-31.67,7.65-63.67,13.99-95.6,20.5-11.72,2.39-19.74-1.66-23.18-14.74-4.79-18.2-7.48-37.03-9.98-55.73-13.9-103.73-26.66-207.62-41.37-311.23-20.28-142.77-50.74-283.49-89.32-422.44-8.92-32.12-19.23-63.86-27.87-96.06-10.44-38.9-.29-66.31,32.61-89.02,27.46-18.95,57.41-32.12,90.85-36.86,29.93-4.24,54.11,4.87,67.98,31.97,11.16,21.8,19.56,45.12,27.9,68.23,27.6,76.49,46.15,155.39,61.43,235.13.21,1.12.03,2.39.51,3.36,2.41,4.89,4.97,9.7,7.48,14.54,4.26-2.9,8.95-5.34,12.73-8.77,53.15-48.23,80.29-111.17,100-178.16,5.13-17.42,9.27-35.15,13.49-52.82,4.84-20.31,13.63-26.63,34.15-23.58,36.04,5.37,72.17,10.94,105.37,26.87,35.18,16.87,56.31,43.98,57.12,85.76Z"/>
          <path class="cls-1" d="M549.87,846.15c1.11,20.46,2.3,40.92,3.3,61.39,2.06,42.18-17.56,57.41-58.82,46.81-56.64-14.54-86.85-50.4-97.36-108.15-32.07-176.27-1.32-344.97,58.4-510.24,27.51-76.13,65.17-147.57,107.67-216.53,23.39-37.95,57.04-52.32,99.41-46.27,12.69,1.81,26.86,8.49,35.87,17.46,14.81,14.73,28.95,31.67,38.12,50.26,37.32,75.67,59.65,156.2,73.05,239.39,12.84,79.72,27.74,159.13,39.43,239.02,11.19,76.53,19.68,153.46,28.81,230.28,3.62,30.5,5.53,61.21,8.64,91.78,3.49,34.26-5.79,50.85-39.1,60.56-20.14,5.87-41.44,8.8-62.43,10.45-18.51,1.45-35.2-6.82-44.03-23.3-9.9-18.49-19.25-38.05-24.15-58.29-13.73-56.71-24.98-114.02-37.36-171.06-6.62-30.52-21.49-43.65-52.68-44.94-14.69-.61-29.66.08-44.19,2.27-26.52,4-37.18,18.28-35.89,44.91,1.36,28.05,2.6,56.1,3.9,84.15-.2,0-.4.02-.59.03ZM665.23,477.26c-2.44-31.22-3.82-56.97-6.74-82.54-1.4-12.23-3.96-24.97-9.14-35.99-9.34-19.85-39.23-21.54-50.24-2.79-6.91,11.79-11.94,25.4-14.56,38.83-4.92,25.24-8.5,50.84-10.76,76.46-2.87,32.43-4.43,65.01-5.46,97.56-.58,18.48,7.45,25.42,25.64,25.37,28.77-.08,56.13-20.61,62.47-50.24,5.03-23.55,6.44-47.88,8.8-66.66Z"/>
          <path class="cls-1" d="M232.81,486.4c5.08,3.04,9.94,5.79,14.65,8.78,52.99,33.73,84.53,82.42,99.69,142.65,15.74,62.51,21.64,126.18,22.75,190.42.05,3.02-.16,6.08-.58,9.08-7.34,51.88-40.18,67.46-92.55,42.69-91.92-43.47-168.13-104.61-219.61-194.35-25.83-45.03-48.27-90.71-57.15-142.54-8.13-47.47,1.22-92.79,12.95-138.07,18.86-72.79,65.14-125.58,124.39-168.49,33.22-24.06,67.29-46.78,108.13-56.44,51.65-12.22,96.65,15.46,102.38,66.97,2.39,21.47-3.44,44.42-8.4,66.04-14.07,61.31-47.22,111.87-91.64,155.56-4.32,4.25-8.56,8.59-12.7,13.03-.94,1.01-1.29,2.58-2.29,4.67ZM250.13,697.66c.76-27.59-32.19-67.57-61.41-74.31-4.4-1.02-9-1.88-13.48-1.77-17.95.43-28.82,14.83-25.21,32.41,5.36,26.15,16.99,49.35,32.82,70.56,10.47,14.02,25.96,19.7,40.8,15.51,18.45-5.21,25.77-16.92,26.47-42.4ZM119.33,409.45c-.78,3.02-2.01,10.87-1.56,13.95.98,6.77,2.74,10.84,7.56,12.45,5.22,1.75,13.46-2.27,18.89-6,7.09-4.86,13.02-11.57,18.9-18,25.67-28.03,37.37-62.05,40.43-99.16,1.31-15.92-6.22-22.91-22.07-24.08-13.03-.95-25.3,7.03-31.64,21.54-5.15,11.79-10.39,23.67-13.97,35.99-6.45,22.18-10.76,40.82-16.55,63.3Z"/>
          <path class="cls-1" d="M1648.22,587.97c-7.52-.34-14.01-.25-20.4-1-9.85-1.15-14.7,3.04-16.49,12.65-5.68,30.55-11.79,61.03-17.65,91.55-3.73,19.42.75,23.47,20.29,18.12,32.15-8.82,64.11-18.41,96.47-26.39,9.27-2.29,19.65-.12,29.51,0-3.57,8.29-6,17.33-10.89,24.76-33.39,50.75-77.83,90.08-129.89,120.49-39.56,23.11-80.36,44.12-120.84,65.65-6.57,3.49-14.14,5.62-21.51,6.96-15.14,2.76-23.13-3.23-22.75-18.57.4-16.23,2.89-32.43,4.8-48.61,13.43-113.97,21.62-228.24,14.89-343.01-6.88-117.34-26.83-232.66-57.56-346.09-7.55-27.85-.92-35.39,27.24-29.71,3.69.74,7.39,1.71,10.89,3.08,85.42,33.38,162.71,81.18,236.35,135.04,26,19.01,46.37,43.76,57.44,74.79,1.9,5.32,1.35,11.52,1.93,17.31-6.11.52-12.68,2.77-18.24,1.27-36.17-9.83-72.09-20.59-108.19-30.7-4.74-1.33-10.03-.69-15.06-.96.15,4.73-.5,9.66.59,14.17,8.11,33.51,16.5,66.96,24.94,100.39,4.73,18.74,17.51,25.55,36.89,22.61,16.37-2.48,33.13-3.61,49.69-3.39,19.2.26,33.71,12.65,33.55,31.69-.21,23.6-2.11,47.85-8.05,70.57-6.72,25.71-29.54,33.72-53.99,36.1-8.3.81-16.67.89-23.94,1.25Z"/>
        </g>
        <circle class="cls-2" cx="1780.35" cy="814.02" r="44.29"/>
      </g>
    </g>
  </g>
</svg>